<svg xmlns="http://www.w3.org/2000/svg" viewBox="0 0 1200 630" width="1200" height="630">
  <defs>
    <linearGradient id="bg" x1="0" y1="0" x2="1" y2="1">
      <stop offset="0" stop-color="#142242"/>
      <stop offset="1" stop-color="#0a0f1a"/>
    </linearGradient>
  </defs>
  <rect width="1200" height="630" fill="url(#bg)"/>
  <g transform="translate(90,150)">
    <rect width="92" height="92" rx="22" fill="#229ed9"/>
    <path fill="#fff" transform="translate(8,8) scale(1.18)" d="M52 16.5 46.8 47c-.4 1.8-1.5 2.2-3 1.4l-8.1-6-3.9 3.8c-.43.43-.8.8-1.63.8l.58-8.25L46.6 23.3c.66-.58-.15-.9-1.03-.33L25.5 35.4l-8-2.5c-1.7-.54-1.76-1.7.37-2.56L49.9 16.45c1.45-.54 2.72.33 2.1 2.05z"/>
  </g>
  <text x="90" y="330" font-family="Inter, Segoe UI, sans-serif" font-size="78" font-weight="800" fill="#f8fafc">Free Telegram Proxy List</text>
  <text x="92" y="400" font-family="Inter, Segoe UI, sans-serif" font-size="36" font-weight="500" fill="#9aa6bd">Verified MTProto proxies · real latency &amp; country · 1-click connect</text>
  <g transform="translate(92,470)">
    <rect width="300" height="64" rx="12" fill="#229ed9"/>
    <text x="150" y="42" text-anchor="middle" font-family="Inter, sans-serif" font-size="28" font-weight="700" fill="#fff">Connect in Telegram</text>
    <text x="330" y="42" font-family="JetBrains Mono, monospace" font-size="26" fill="#22c55e">● updated every 6h</text>
  </g>
</svg>
